<svg width="31" height="38" viewBox="0 0 31 38" fill="none" xmlns="http://www.w3.org/2000/svg">
<path d="M11.2473 17.6067C10.56 20.3122 9.88364 23.0177 9.18546 25.7231C8.48728 28.4395 7.7891 31.1449 6.93819 33.8176C6.64364 34.7558 6.27273 35.6613 5.61819 36.414C4.32 37.9086 2.41091 37.9631 1.23273 36.5558C0.600005 35.8031 0.458187 34.9631 0.78546 34.0358C1.17819 32.9013 1.82182 31.8976 2.45455 30.894C3.68728 28.9522 4.87637 26.9886 5.9891 24.9704C8.01819 21.2831 9 17.3231 9.41455 13.1776C9.74182 9.89401 10.08 6.61038 10.4291 3.32674C10.4836 2.85765 10.5491 2.38856 10.8 1.9631C11.2364 1.22128 12.0873 0.784921 12.8618 0.91583C13.7564 1.06856 14.4764 1.75583 14.6182 2.61765C14.6836 3.05401 14.7164 3.51219 14.7164 3.95947C14.7382 8.24674 14.7273 12.5231 14.7709 16.8104C14.7709 17.8795 14.7818 18.9704 15.36 19.9631C16.2982 21.5776 18.0655 22.0795 19.6473 21.0867C20.9127 20.2904 21.6655 19.1886 21.6545 17.6176C21.6436 16.0795 21.6546 14.5522 21.6655 13.014C21.6655 11.0613 21.6436 9.10856 21.7636 7.14492C21.84 5.99947 22.68 5.13765 23.8036 5.14856C24.8509 5.14856 25.7891 6.03219 25.8109 7.11219C25.8436 9.11947 25.8109 11.1267 25.8436 13.134C25.8764 15.6976 25.7455 18.2613 25.9746 20.8249C26.0291 21.3922 26.1491 21.9267 26.3891 22.4286C26.7273 23.1376 27.1855 23.2467 27.7636 22.7231C28.2109 22.3195 28.5818 21.8286 29.0073 21.3922C29.2145 21.174 29.4436 20.8467 29.8036 21.1086C30.1091 21.3267 30.0655 21.6649 29.9673 21.9813C29.9127 22.1558 29.8364 22.3304 29.7382 22.4831C28.8764 23.8467 27.7746 24.9813 26.3455 25.7449C24.6327 26.6613 23.2909 26.0395 22.7673 24.1631C22.6691 23.814 22.7236 23.2467 22.4509 23.1595C22.0364 23.0395 21.8946 23.6176 21.6327 23.8795C20.3236 25.1667 18.7745 25.9522 16.9309 26.1267C14.6727 26.3449 13.0145 25.3086 12.1636 23.1376C11.5745 21.6431 11.4545 20.0613 11.3455 18.4795C11.3236 18.1958 11.3455 17.9013 11.3455 17.6067H11.2473Z" fill="#F7F7F7"/>
</svg>
