<svg width="22" height="20" viewBox="0 0 22 20" fill="none" xmlns="http://www.w3.org/2000/svg">
<g id="Group 55">
<path id="Vector 34" d="M2.44223 7.37694C2.44223 8.32722 2.4524 9.96735 3.04435 10.7162C3.46976 11.2543 3.23079 13.0994 4.06795 13.2876C4.90802 13.4766 6.10936 13.0805 7.04242 13.0805C8.60787 13.0805 10.1043 13.5192 11.6426 13.5192C12.7592 13.5192 13.8999 13.5855 15.0145 13.5192C15.4751 13.4918 14.2716 10.9112 15.1228 10.9112C15.2585 10.9112 15.2567 11.3269 15.3516 11.423C15.5748 11.6489 15.9993 11.8065 16.2669 11.9836C16.8146 12.3461 17.1011 12.7791 17.5674 13.2511C18.0367 13.726 18.4123 14.3372 18.9162 14.7379C19.65 15.3214 20 16.0826 20 14.7988C20 11.3857 19.7034 7.89871 19.5665 4.57393C19.5526 4.23613 18.4737 5.15779 18.2659 5.29297C17.7546 5.62559 16.2456 6.65109 16.1103 7.26726C15.9164 8.15052 15.8815 6.49072 15.8815 6.28011C15.8815 5.86012 15.938 5.39199 15.8695 4.9761C15.8088 4.60766 15.6187 4.9554 15.3998 4.96392C13.8716 5.0234 12.3299 4.96392 10.7996 4.96392C9.21688 4.96392 7.67893 5.40265 6.1272 5.40265C5.18149 5.40265 3.3852 5.0431 2.55061 5.51233C1.98854 5.82834 1.98049 5.80586 2.00871 6.54823C2.02806 7.05753 2.1974 8.02083 2.65899 8.2544" stroke="#101010" stroke-width="3" stroke-linecap="round"/>
</g>
</svg>
