<svg width="22" height="24" viewBox="0 0 22 24" fill="none" xmlns="http://www.w3.org/2000/svg">
<path d="M9.01803 2.14393C9.30585 2.53665 8.01861 2.37835 7.83446 2.37835C6.61541 2.37835 5.19232 2.18298 4.10558 2.87324C1.41503 4.58218 1.99047 9.45314 2.1966 12.1719C2.42487 15.1826 3.9209 16.6151 6.82906 17.238C7.85208 17.4571 9.23152 17.7482 10.278 17.5896C11.5215 17.4011 12.3405 15.9735 13.0269 15.037C14.1835 13.4588 16.5325 11.0148 16.5776 8.89001C16.6046 7.61903 16.9704 5.51389 15.8776 4.60534C14.7536 3.67081 13.8944 2.49457 12.4033 2.19602C10.3641 1.78774 8.51152 2.14393 6.49817 2.14393" stroke="#F8F8F8" stroke-width="3" stroke-linecap="round"/>
<path d="M14.3115 16.1602C16.2595 18.1082 18.2036 20.0522 20.1516 22.0003" stroke="#F8F8F8" stroke-width="3" stroke-linecap="round"/>
</svg>
