<svg width="22" height="24" viewBox="0 0 22 24" fill="none" xmlns="http://www.w3.org/2000/svg">
<g id="Group 29">
<path id="Vector 6" d="M8.86672 2.14393C9.15454 2.53665 7.86731 2.37835 7.68315 2.37835C6.4641 2.37835 5.04102 2.18298 3.95427 2.87324C1.26373 4.58218 1.83916 9.45314 2.04529 12.1719C2.27356 15.1826 3.76959 16.6151 6.67775 17.238C7.70077 17.4571 9.08021 17.7482 10.1266 17.5896C11.3702 17.4011 12.1892 15.9735 12.8756 15.037C14.0322 13.4588 16.3811 11.0148 16.4263 8.89001C16.4533 7.61903 16.8191 5.51389 15.7263 4.60534C14.6023 3.67081 13.7431 2.49457 12.252 2.19602C10.2127 1.78774 8.36022 2.14393 6.34686 2.14393" stroke="#101010" stroke-width="3" stroke-linecap="round"/>
<path id="Vector 7" d="M14.16 16.1597C16.108 18.1077 18.0521 20.0517 20.0001 21.9998" stroke="#101010" stroke-width="3" stroke-linecap="round"/>
</g>
</svg>
