<svg width="40" height="40" viewBox="0 0 40 40" fill="none" xmlns="http://www.w3.org/2000/svg">
<rect width="40" height="40" fill="#EFEFEF"/>
<path d="M9.37739 24.1205C7.96619 22.7581 7.02349 21.0133 6.30337 19.2255C5.72832 17.7978 4.34718 16.1017 4.34718 14.5809C4.34718 14.3134 3.81597 12.9617 4.06772 13.3668C4.50612 14.0722 5.86811 14.5206 6.50298 15.1013C7.92812 16.4048 9.80525 17.3026 11.2537 18.6473C11.5865 18.9563 13.0358 20.2662 13.4894 20.2662C13.908 20.2662 13.689 14.8915 13.689 14.446C13.689 11.4746 15.2822 8.9696 17.302 6.77583C18.151 5.85368 18.891 4.85656 19.8769 4.07777C20.7539 3.38501 20.5157 7.54118 20.5157 7.81651C20.5157 10.6531 20.8548 13.2707 21.3141 16.0649C21.5408 17.4436 21.7496 19.115 23.1106 18.2233C26.776 15.822 30.1292 13.5523 34.1492 11.8058C35.0375 11.4199 36.3233 10.8098 35.9257 12.3454C35.3488 14.5733 34.0104 17.0895 33.0912 19.2447C31.6127 22.7116 31.8466 25.6646 31.2149 29.3239C31.0011 30.562 31.0827 32.3543 30.4963 33.4867C29.9308 34.5786 26.9893 35.3499 25.9851 35.568C24.2029 35.9552 17.0614 36.8173 16.2241 33.9877C15.883 32.8352 14.1528 30.9634 13.15 30.2104C12.1495 29.4591 11.0991 28.1559 10.1758 27.1655C8.96387 25.8654 8.75825 23.8697 7.58088 22.733" stroke="#101010" stroke-width="3" stroke-linecap="round"/>
<path d="M17.6679 25.0674C18.5784 25.1773 17.1885 26.8795 17.1885 25.5303" stroke="#101010" stroke-width="3" stroke-linecap="round"/>
<path d="M24.619 25.5317C25.1279 25.5931 24.7388 26.1103 24.2728 25.9817C23.797 25.8505 24.2625 25.3003 24.619 25.3003" stroke="#101010" stroke-width="3" stroke-linecap="round"/>
<path d="M19.5854 30.623C20.3843 30.623 22.2835 31.1991 22.7017 30.3916" stroke="#101010" stroke-width="3" stroke-linecap="round"/>
</svg>
