<svg width="24" height="24" viewBox="0 0 24 24" fill="none" xmlns="http://www.w3.org/2000/svg">
<path d="M14.1711 21.7053C13.535 21.776 13.1052 22.2848 12.4324 22.2848C11.5147 22.2848 10.5971 22.2848 9.67941 22.2848C8.1647 22.2848 7.34609 21.9956 6.05705 21.3511C3.3156 19.9804 2 18.0857 2 15.0401C2 12.2059 3.67716 10.5687 6.05705 9.30873C7.07066 8.77211 7.82819 8.37497 9.09983 8.37497C10.0627 8.37497 11.2452 9.49402 12.1426 9.01894C13.0582 8.53422 13.506 7.21581 14.8956 7.21581C15.9119 7.21581 17.0455 6.63623 18.2282 6.63623C21.0057 6.63623 21.9954 10.0111 21.9954 12.1422C21.9954 14.2661 22.1941 17.9192 19.9669 19.0328C18.0773 19.9776 15.7751 21.7053 13.5916 21.7053" stroke="#101010" stroke-width="3" stroke-linecap="round"/>
<path d="M12.1427 8.3747C10.1682 6.61958 7.45073 5.7666 4.89795 5.7666" stroke="#101010" stroke-width="3" stroke-linecap="round"/>
<path d="M11.563 7.2162C11.563 6.15262 12.0662 2.54141 10.9834 2" stroke="#101010" stroke-width="3" stroke-linecap="round"/>
<path d="M12.1426 7.21598C12.1426 4.1812 13.8397 2.86914 16.7792 2.86914" stroke="#101010" stroke-width="3" stroke-linecap="round"/>
</svg>
