<svg width="40" height="40" viewBox="0 0 40 40" fill="none" xmlns="http://www.w3.org/2000/svg">
<rect width="40" height="40" fill="#EFEFEF"/>
<path d="M12.5452 13.0258C10.6461 13.2368 11.0323 15.0738 11.0323 16.1777C11.0323 17.3335 12.8383 18.815 13.6798 19.4696C15.1351 20.6015 19.0148 20.8527 20.74 20.086C21.9799 19.5349 22.2423 18.579 22.9393 17.6205C23.9958 16.1678 23.8919 15.1052 23.8919 13.2779C23.8919 12.3718 22.6825 10.9642 21.8747 10.5603C20.7797 10.0128 19.8065 10 18.5968 10" stroke="#101010" stroke-width="3" stroke-linecap="round"/>
<path d="M20.8662 19.832C20.9407 20.4281 22.3514 21.7766 22.7573 22.1014C23.5636 22.7464 24.3197 24.3623 25.0127 25.2532C25.6955 26.1311 26.4072 26.841 27.1699 27.6487C27.7799 28.2945 28.151 29.526 28.935 29.918" stroke="#101010" stroke-width="3" stroke-linecap="round"/>
</svg>
