<svg width="40" height="40" viewBox="0 0 40 40" fill="none" xmlns="http://www.w3.org/2000/svg">
<rect width="40" height="40" fill="#EFEFEF"/>
<path d="M23.3259 30C20.9451 30 17.6042 27.4079 16.4266 25.8807C15.7732 25.0333 13.5343 23.5597 12.5271 22.7912C11.2292 21.8011 9.48345 20.4276 8.62747 19.1868C6.92044 16.7124 5.47024 13.4568 10.2023 12.6074C13.6405 11.9902 18.0373 12.376 19.8013 15.0675C22.1023 18.5785 21.5634 14.3017 23.1759 11.978C24.9726 9.38895 29.088 9.71946 31.425 10.8338C35.12 12.5957 33.5751 18.6188 31.575 20.7316C28.7428 23.7233 25.3137 26.4379 22.651 29.4851" stroke="#101010" stroke-width="3" stroke-linecap="round"/>
</svg>