<svg width="40" height="26" viewBox="0 0 40 26" fill="none" xmlns="http://www.w3.org/2000/svg">
<path d="M2.88446 7.75388C2.88446 9.65443 2.9048 12.9347 4.0887 14.4324C4.93952 15.5086 4.46158 19.1987 6.1359 19.5753C7.81604 19.9531 10.2187 19.1609 12.0848 19.1609C15.2157 19.1609 18.2086 20.0384 21.2852 20.0384C23.5185 20.0384 25.7999 20.1711 28.0289 20.0384C28.9502 19.9835 26.5431 14.8223 28.2457 14.8223C28.517 14.8223 28.5134 15.6538 28.7033 15.846C29.1496 16.2977 29.9985 16.6131 30.5337 16.9672C31.6293 17.6922 32.2021 18.5582 33.1349 19.5021C34.0734 20.4519 34.8246 21.6744 35.8324 22.4758C37.3 23.6428 38 25.1651 38 22.5976C38 15.7713 37.4067 8.79741 37.133 2.14787C37.1051 1.47225 34.9474 3.31557 34.5318 3.58593C33.5093 4.25117 30.4912 6.30219 30.2206 7.53452C29.8327 9.30103 29.763 5.98145 29.763 5.56022C29.763 4.72024 29.8759 3.78399 29.7389 2.95221C29.6176 2.21532 29.2374 2.91079 28.7996 2.92783C25.7432 3.0468 22.6597 2.92783 19.5993 2.92783C16.4338 2.92783 13.3579 3.8053 10.2544 3.8053C8.36298 3.8053 4.77039 3.08621 3.10123 4.02466C1.97708 4.65669 1.96099 4.61171 2.01741 6.09645C2.05612 7.11505 2.3948 9.04167 3.31799 9.50881" stroke="#101010" stroke-width="3" stroke-linecap="round"/>
<path d="M11.3306 13.3468C11.3306 11.7446 10.3316 10.75 11.8068 9.36086C12.9632 8.27205 15.3263 7.43768 16.5811 8.75051C17.6001 9.81657 16.6012 12.7162 15.2834 13.1102C14.2589 13.4164 11.3306 15.8983 11.3306 12.8984" stroke="#101010" stroke-width="3" stroke-linecap="round"/>
</svg>
