<svg width="22" height="24" viewBox="0 0 22 24" fill="none" xmlns="http://www.w3.org/2000/svg">
<path d="M3.54517 5.02579C1.64612 5.2368 2.03228 7.0738 2.03228 8.17766C2.03228 9.33351 3.83827 10.815 4.67984 11.4696C6.13512 12.6015 10.0148 12.8527 11.74 12.086C12.9799 11.5349 13.2423 10.579 13.9393 9.62051C14.9958 8.16782 14.8919 7.1052 14.8919 5.27794C14.8919 4.37183 13.6825 2.96423 12.8747 2.56033C11.7797 2.01283 10.8065 2 9.59675 2" stroke="#101010" stroke-width="3" stroke-linecap="round"/>
<path d="M11.8662 11.832C11.9407 12.4281 13.3514 13.7766 13.7573 14.1014C14.5636 14.7464 15.3197 16.3623 16.0127 17.2532C16.6955 18.1311 17.4072 18.841 18.1699 19.6487C18.7799 20.2945 19.151 21.526 19.935 21.918" stroke="#101010" stroke-width="3" stroke-linecap="round"/>
</svg>
