<svg width="36" height="36" viewBox="0 0 36 36" fill="none" xmlns="http://www.w3.org/2000/svg">
<path d="M7.37739 22.1205C5.96619 20.7581 5.02349 19.0133 4.30337 17.2255C3.72832 15.7978 2.34718 14.1017 2.34718 12.5809C2.34718 12.3134 1.81597 10.9617 2.06772 11.3668C2.50612 12.0722 3.86811 12.5206 4.50298 13.1013C5.92812 14.4048 7.80525 15.3026 9.25373 16.6473C9.58653 16.9563 11.0358 18.2662 11.4894 18.2662C11.908 18.2662 11.689 12.8915 11.689 12.446C11.689 9.47456 13.2822 6.9696 15.302 4.77583C16.151 3.85368 16.891 2.85656 17.8769 2.07777C18.7539 1.38501 18.5157 5.54118 18.5157 5.81651C18.5157 8.65314 18.8548 11.2707 19.3141 14.0649C19.5408 15.4436 19.7496 17.115 21.1106 16.2233C24.776 13.822 28.1292 11.5523 32.1492 9.80579C33.0375 9.41985 34.3233 8.80985 33.9257 10.3454C33.3488 12.5733 32.0104 15.0895 31.0912 17.2447C29.6127 20.7116 29.8466 23.6646 29.2149 27.3239C29.0011 28.562 29.0827 30.3543 28.4963 31.4867C27.9308 32.5786 24.9893 33.3499 23.9851 33.568C22.2029 33.9552 15.0614 34.8173 14.2241 31.9877C13.883 30.8352 12.1528 28.9634 11.15 28.2104C10.1495 27.4591 9.09911 26.1559 8.17583 25.1655C6.96387 23.8654 6.75825 21.8697 5.58088 20.733" stroke="#101010" stroke-width="3" stroke-linecap="round"/>
<path d="M15.6679 23.0674C16.5784 23.1773 15.1885 24.8795 15.1885 23.5303" stroke="#101010" stroke-width="3" stroke-linecap="round"/>
<path d="M22.619 23.5317C23.1279 23.5931 22.7388 24.1103 22.2728 23.9817C21.797 23.8505 22.2625 23.3003 22.619 23.3003" stroke="#101010" stroke-width="3" stroke-linecap="round"/>
<path d="M17.5859 28.6233C18.3848 28.6233 20.284 29.1993 20.7022 28.3918" stroke="#101010" stroke-width="3" stroke-linecap="round"/>
</svg>
