<svg width="29" height="17" viewBox="0 0 29 17" fill="none" xmlns="http://www.w3.org/2000/svg">
<path d="M3.04053 8.59213C3.04053 6.62353 6.03736 3.04796 8.09064 2.67463C10.9294 2.1585 13.4647 2 16.3983 2C21.1237 2 24.3447 5.40259 26.2865 9.28604" stroke="black" stroke-width="3" stroke-linecap="round"/>
<path d="M2 8.9375C2.18969 10.6447 6.30828 12.4875 7.72475 13.2744C8.64284 13.7845 9.84486 13.9383 10.8473 14.1611C11.8468 14.3832 13.0178 15.1827 13.9699 15.1827C16.3616 15.1827 18.2927 15.7873 20.7355 14.5659C22.4345 13.7164 26.0008 12.2241 26.6338 10.3253" stroke="black" stroke-width="3" stroke-linecap="round"/>
<path d="M12.0614 3.73409C10.7126 5.42007 10.3267 8.39362 10.3267 10.4997C10.3267 12.5874 12.8559 13.2335 14.5672 13.1019C16.9604 12.9178 17.6127 8.22416 17.6127 6.529C17.6127 3.46938 15.2035 2.57109 12.7553 3.38713" stroke="black" stroke-width="3" stroke-linecap="round"/>
</svg>
