<svg width="342" height="54" viewBox="0 0 342 54" fill="none" xmlns="http://www.w3.org/2000/svg">
<path d="M4.56977 42.4876V7.77942H0V0.712401H12.2386V7.77942H7.67931V42.4876H4.56977Z" fill="#F8F8F8"/>
<path d="M17.176 0.712401V16.0718C18.1285 13.0512 19.2666 11.5409 20.5902 11.5409C21.2696 11.5409 21.8824 11.8829 22.4286 12.5668C22.9749 13.2507 23.3846 14.1245 23.6577 15.1884C23.9379 16.2522 24.127 17.4301 24.225 18.7219C24.3301 20.0137 24.3826 22.0179 24.3826 24.7346V42.4876H21.4306V26.5013C21.4306 23.3288 21.3746 21.315 21.2626 20.4602C21.1505 19.6053 20.9509 18.9309 20.6638 18.4369C20.3836 17.924 20.0299 17.6675 19.6027 17.6675C19.1125 17.6675 18.6748 17.9905 18.2896 18.6364C17.9044 19.2823 17.6208 20.2607 17.4387 21.5715C17.2636 22.8633 17.176 24.7821 17.176 27.3277V42.4876H14.2241V0.712401H17.176Z" fill="#F8F8F8"/>
<path d="M33.8478 32.8559L36.7893 34.1953C36.4111 37.1208 35.8123 39.353 34.9929 40.8918C34.1805 42.4116 33.1615 43.1715 31.9359 43.1715C29.9959 43.1715 28.5602 41.4522 27.6287 38.0137C26.8934 35.2591 26.5257 31.7826 26.5257 27.5842C26.5257 22.5689 27.0089 18.6459 27.9754 15.8153C28.9419 12.9657 30.164 11.5409 31.6417 11.5409C33.3015 11.5409 34.6112 13.0322 35.5707 16.0148C36.5301 18.9784 36.9889 23.5282 36.9468 29.6644H29.5512C29.5722 32.0391 29.8103 33.8913 30.2655 35.2211C30.7208 36.5319 31.288 37.1873 31.9674 37.1873C32.4296 37.1873 32.8183 36.8454 33.1335 36.1615C33.4486 35.4776 33.6867 34.3757 33.8478 32.8559ZM34.0159 24.7631C33.9949 22.4454 33.7743 20.6881 33.3541 19.4913C32.9339 18.2755 32.4226 17.6675 31.8203 17.6675C31.176 17.6675 30.6437 18.304 30.2235 19.5768C29.8033 20.8496 29.5967 22.5784 29.6037 24.7631H34.0159Z" fill="#F8F8F8"/>
<path d="M44.5841 28.895L47.6096 28.0971C47.7917 30.8517 48.1594 32.8749 48.7127 34.1668C49.273 35.4586 50.0258 36.1045 50.9713 36.1045C51.9728 36.1045 52.7257 35.5346 53.2299 34.3947C53.7412 33.2359 53.9968 31.8871 53.9968 30.3483C53.9968 29.3604 53.8883 28.5245 53.6712 27.8406C53.461 27.1377 53.0899 26.5298 52.5576 26.0169C52.1934 25.6749 51.3635 25.067 50.0679 24.1931C48.401 23.0723 47.2315 21.695 46.5591 20.0612C45.6137 17.7625 45.1409 14.9604 45.1409 11.6549C45.1409 9.52718 45.3615 7.54195 45.8027 5.69921C46.251 3.83747 46.8918 2.42216 47.7252 1.4533C48.5656 0.484433 49.5776 0 50.7612 0C52.6942 0 54.1474 1.14934 55.1209 3.44802C56.1014 5.7467 56.6161 8.81478 56.6651 12.6522L53.5556 13.0227C53.4225 10.876 53.1354 9.3372 52.6942 8.40633C52.26 7.45646 51.6051 6.98153 50.7297 6.98153C49.8262 6.98153 49.1189 7.48496 48.6076 8.49182C48.2785 9.13773 48.1139 10.0021 48.1139 11.085C48.1139 12.0728 48.268 12.9182 48.5761 13.6211C48.9683 14.514 49.9208 15.4449 51.4335 16.4137C52.9463 17.3826 54.0634 18.3894 54.7847 19.4343C55.5131 20.4602 56.0804 21.8755 56.4866 23.6802C56.8998 25.466 57.1064 27.6792 57.1064 30.3198C57.1064 32.7135 56.8612 34.9551 56.371 37.0449C55.8808 39.1346 55.1874 40.6924 54.291 41.7182C53.3945 42.7251 52.2775 43.2285 50.9398 43.2285C48.9928 43.2285 47.4976 42.0127 46.4541 39.581C45.4106 37.1303 44.7872 33.5683 44.5841 28.895Z" fill="#F8F8F8"/>
<path d="M59.7011 42.4876V0.712401H62.6531V42.4876H59.7011Z" fill="#F8F8F8"/>
<path d="M65.0063 26.9288C65.0063 24.2691 65.2479 21.695 65.7311 19.2063C66.2144 16.7177 66.8972 14.8179 67.7797 13.5071C68.6691 12.1963 69.6601 11.5409 70.7526 11.5409C72.4405 11.5409 73.8237 13.0322 74.9022 16.0148C75.9807 18.9784 76.52 22.7303 76.52 27.2707C76.52 31.8491 75.9737 35.6485 74.8812 38.6691C73.7956 41.6707 72.4265 43.1715 70.7737 43.1715C69.7511 43.1715 68.7742 42.5446 67.8427 41.2908C66.9182 40.0369 66.2144 38.2037 65.7311 35.791C65.2479 33.3594 65.0063 30.4053 65.0063 26.9288ZM68.0318 27.3562C68.0318 30.3578 68.2944 32.6565 68.8197 34.2522C69.3449 35.848 69.9928 36.6459 70.7631 36.6459C71.5335 36.6459 72.1778 35.848 72.6961 34.2522C73.2214 32.6565 73.484 30.3388 73.484 27.2992C73.484 24.3356 73.2214 22.0559 72.6961 20.4602C72.1778 18.8644 71.5335 18.0665 70.7631 18.0665C69.9928 18.0665 69.3449 18.8644 68.8197 20.4602C68.2944 22.0559 68.0318 24.3546 68.0318 27.3562Z" fill="#F8F8F8"/>
<path d="M78.7576 12.2248H81.51V16.6702C81.8672 15.1504 82.3504 13.9156 82.9597 12.9657C83.569 12.0158 84.2448 11.5409 84.9872 11.5409C86.2829 11.5409 87.3824 12.9182 88.2858 15.6728C89.1893 18.4274 89.641 22.2649 89.641 27.1852C89.641 32.2385 89.1858 36.171 88.2753 38.9826C87.3649 41.7752 86.2618 43.1715 84.9662 43.1715C84.3499 43.1715 83.7896 42.8391 83.2854 42.1741C82.7881 41.5092 82.2629 40.3694 81.7096 38.7546V54H78.7576V12.2248ZM81.6781 26.8433C81.6781 30.2438 81.9267 32.7609 82.4239 34.3947C82.9212 36.0095 83.527 36.8169 84.2413 36.8169C84.9277 36.8169 85.4985 36.076 85.9537 34.5942C86.4089 33.0934 86.6365 30.6427 86.6365 27.2422C86.6365 24.0697 86.4019 21.714 85.9327 20.1752C85.4634 18.6364 84.8822 17.867 84.1888 17.867C83.4675 17.867 82.8687 18.6269 82.3924 20.1467C81.9162 21.6475 81.6781 23.8797 81.6781 26.8433Z" fill="#F8F8F8"/>
<path d="M105.168 27.1282V20.0897H111.87V36.7314C111.219 38.4412 110.273 39.9515 109.034 41.2623C107.801 42.5541 106.551 43.2 105.283 43.2C103.672 43.2 102.268 42.2881 101.071 40.4644C99.8731 38.6216 98.9732 36 98.3709 32.5995C97.7686 29.1799 97.4674 25.466 97.4674 21.4575C97.4674 17.1071 97.8036 13.2412 98.4759 9.85963C99.1482 6.4781 100.132 3.88496 101.428 2.08021C102.415 0.693404 103.644 0 105.115 0C107.027 0 108.519 1.09235 109.59 3.27705C110.669 5.44274 111.362 8.44433 111.67 12.2818L108.582 13.8491C108.365 11.7974 107.955 10.1826 107.353 9.00475C106.758 7.80792 106.012 7.2095 105.115 7.2095C103.757 7.2095 102.674 8.37784 101.869 10.7145C101.071 13.0512 100.672 16.5182 100.672 21.1156C100.672 26.0739 101.078 29.7974 101.89 32.286C102.703 34.7557 103.767 35.9905 105.084 35.9905C105.735 35.9905 106.386 35.6486 107.038 34.9646C107.696 34.2617 108.26 33.4164 108.729 32.4285V27.1282H105.168Z" fill="#F8F8F8"/>
<path d="M114.045 26.9288C114.045 24.2691 114.286 21.695 114.77 19.2063C115.253 16.7177 115.936 14.8179 116.818 13.5071C117.707 12.1963 118.698 11.5409 119.791 11.5409C121.479 11.5409 122.862 13.0322 123.941 16.0148C125.019 18.9784 125.558 22.7303 125.558 27.2707C125.558 31.8491 125.012 35.6485 123.92 38.6691C122.834 41.6707 121.465 43.1715 119.812 43.1715C118.789 43.1715 117.813 42.5446 116.881 41.2908C115.957 40.0369 115.253 38.2037 114.77 35.791C114.286 33.3594 114.045 30.4053 114.045 26.9288ZM117.07 27.3562C117.07 30.3578 117.333 32.6565 117.858 34.2522C118.383 35.848 119.031 36.6459 119.801 36.6459C120.572 36.6459 121.216 35.848 121.734 34.2522C122.26 32.6565 122.522 30.3388 122.522 27.2992C122.522 24.3356 122.26 22.0559 121.734 20.4602C121.216 18.8644 120.572 18.0665 119.801 18.0665C119.031 18.0665 118.383 18.8644 117.858 20.4602C117.333 22.0559 117.07 24.3546 117.07 27.3562Z" fill="#F8F8F8"/>
<path d="M127.754 42.4876V0.712401H130.706V15.7583C131.616 12.9467 132.695 11.5409 133.942 11.5409C135.3 11.5409 136.424 12.8802 137.314 15.5588C138.203 18.2185 138.648 22.0464 138.648 27.0427C138.648 32.21 138.193 36.19 137.282 38.9826C136.379 41.7752 135.279 43.1715 133.984 43.1715C133.346 43.1715 132.716 42.7441 132.093 41.8892C131.476 41.0153 130.944 39.733 130.496 38.0422V42.4876H127.754ZM130.685 26.7008C130.685 29.8354 130.867 32.153 131.231 33.6538C131.742 35.7815 132.422 36.8454 133.269 36.8454C133.921 36.8454 134.474 36.095 134.929 34.5942C135.391 33.0744 135.622 30.6902 135.622 27.4417C135.622 23.9842 135.391 21.4955 134.929 19.9757C134.467 18.4369 133.875 17.6675 133.154 17.6675C132.446 17.6675 131.858 18.4179 131.389 19.9187C130.92 21.4005 130.685 23.6612 130.685 26.7008Z" fill="#F8F8F8"/>
<path d="M141.033 42.4876V0.712401H143.985V42.4876H141.033Z" fill="#F8F8F8"/>
<path d="M147.021 8.12137V0.712401H149.972V8.12137H147.021ZM147.021 42.4876V12.2248H149.972V42.4876H147.021Z" fill="#F8F8F8"/>
<path d="M163.157 42.4876H160.205V27.0427C160.205 23.7752 160.142 21.6665 160.015 20.7166C159.889 19.7478 159.683 18.9974 159.396 18.4654C159.116 17.9335 158.776 17.6675 158.377 17.6675C157.865 17.6675 157.407 18.0475 157 18.8074C156.594 19.5673 156.314 20.5741 156.16 21.828C156.013 23.0818 155.939 25.3995 155.939 28.781V42.4876H152.987V12.2248H155.729V16.6702C156.703 13.2507 157.928 11.5409 159.406 11.5409C160.057 11.5409 160.653 11.8639 161.192 12.5098C161.731 13.1367 162.138 13.9441 162.411 14.9319C162.691 15.9198 162.883 17.0406 162.988 18.2945C163.101 19.5483 163.157 21.3435 163.157 23.6802V42.4876Z" fill="#F8F8F8"/>
<path d="M166.14 15.5588L165.583 7.77942V0.712401H168.798V7.77942L168.315 15.5588H166.14Z" fill="#F8F8F8"/>
<path d="M170.248 33.8533L173.21 32.628C173.336 34.1858 173.592 35.3731 173.977 36.19C174.362 36.9879 174.901 37.3868 175.595 37.3868C176.358 37.3868 176.932 37.0069 177.318 36.247C177.577 35.715 177.706 35.0026 177.706 34.1098C177.706 33.5019 177.636 32.9984 177.496 32.5995C177.349 32.2195 177.02 31.8681 176.509 31.5451C174.127 30.1203 172.618 28.819 171.981 27.6412C171.098 26.0074 170.657 23.7372 170.657 20.8306C170.657 18.209 171.039 16.0053 171.802 14.2195C172.566 12.4338 173.749 11.5409 175.353 11.5409C176.88 11.5409 178.014 12.2153 178.757 13.5641C179.499 14.9129 180.01 16.9077 180.291 19.5483L177.507 20.9446C177.388 19.7668 177.16 18.8644 176.824 18.2375C176.495 17.6106 176.022 17.2971 175.406 17.2971C174.628 17.2971 174.071 17.5916 173.735 18.1805C173.511 18.5984 173.399 19.1398 173.399 19.8048C173.399 20.3747 173.497 20.8591 173.693 21.258C173.959 21.79 174.877 22.5404 176.446 23.5092C178.021 24.4781 179.121 25.6654 179.744 27.0712C180.361 28.496 180.669 30.4813 180.669 33.0269C180.669 35.8005 180.242 38.1847 179.387 40.1794C178.533 42.1741 177.269 43.1715 175.595 43.1715C174.075 43.1715 172.87 42.3356 171.981 40.6639C171.098 38.9921 170.521 36.7219 170.248 33.8533Z" fill="#F8F8F8"/>
<path d="M191.458 42.4876L187.781 0.712401H190.964L193.285 29.4079L196.101 0.712401H199.799L202.499 29.8923L204.862 0.712401H207.993L204.253 42.4876H200.954L197.887 11.2559L194.83 42.4876H191.458Z" fill="#F8F8F8"/>
<path d="M215.63 32.8559L218.572 34.1953C218.193 37.1208 217.595 39.353 216.775 40.8918C215.963 42.4116 214.944 43.1715 213.718 43.1715C211.778 43.1715 210.342 41.4522 209.411 38.0137C208.676 35.2591 208.308 31.7826 208.308 27.5842C208.308 22.5689 208.791 18.6459 209.758 15.8153C210.724 12.9657 211.946 11.5409 213.424 11.5409C215.084 11.5409 216.393 13.0322 217.353 16.0148C218.312 18.9784 218.771 23.5282 218.729 29.6644H211.333C211.354 32.0391 211.593 33.8913 212.048 35.2211C212.503 36.5319 213.07 37.1873 213.75 37.1873C214.212 37.1873 214.601 36.8454 214.916 36.1615C215.231 35.4776 215.469 34.3757 215.63 32.8559ZM215.798 24.7631C215.777 22.4454 215.557 20.6881 215.136 19.4913C214.716 18.2755 214.205 17.6675 213.603 17.6675C212.958 17.6675 212.426 18.304 212.006 19.5768C211.586 20.8496 211.379 22.5784 211.386 24.7631H215.798Z" fill="#F8F8F8"/>
<path d="M221.019 42.4876V0.712401H223.971V15.7583C224.882 12.9467 225.96 11.5409 227.207 11.5409C228.566 11.5409 229.69 12.8802 230.579 15.5588C231.468 18.2185 231.913 22.0464 231.913 27.0427C231.913 32.21 231.458 36.19 230.548 38.9826C229.644 41.7752 228.544 43.1715 227.249 43.1715C226.612 43.1715 225.981 42.7441 225.358 41.8892C224.742 41.0153 224.209 39.733 223.761 38.0422V42.4876H221.019ZM223.95 26.7008C223.95 29.8354 224.132 32.153 224.496 33.6538C225.008 35.7815 225.687 36.8454 226.535 36.8454C227.186 36.8454 227.739 36.095 228.194 34.5942C228.657 33.0744 228.888 30.6902 228.888 27.4417C228.888 23.9842 228.657 21.4955 228.194 19.9757C227.732 18.4369 227.14 17.6675 226.419 17.6675C225.712 17.6675 225.123 18.4179 224.654 19.9187C224.185 21.4005 223.95 23.6612 223.95 26.7008Z" fill="#F8F8F8"/>
<path d="M240.317 42.4876V0.712401H246.862C248.508 0.712401 249.702 1.09235 250.444 1.85224C251.194 2.59314 251.793 3.92296 252.241 5.84169C252.689 7.76042 252.913 9.95462 252.913 12.4243C252.913 15.5588 252.573 18.152 251.894 20.2037C251.215 22.2364 250.199 23.5187 248.848 24.0507C249.52 25.1145 250.073 26.2829 250.507 27.5557C250.949 28.8285 251.54 31.0892 252.283 34.3377L254.163 42.4876H250.444L248.196 33.3974C247.398 30.1488 246.852 28.1066 246.557 27.2707C246.263 26.4158 245.952 25.8364 245.622 25.5325C245.293 25.2095 244.772 25.048 244.057 25.048H243.427V42.4876H240.317ZM243.427 18.3799H245.728C247.219 18.3799 248.151 18.209 248.522 17.867C248.893 17.5251 249.184 16.9361 249.394 16.1003C249.604 15.2644 249.709 14.2195 249.709 12.9657C249.709 11.5599 249.569 10.4296 249.289 9.57467C249.016 8.70079 248.627 8.14987 248.123 7.9219C247.871 7.82691 247.114 7.77942 245.854 7.77942H243.427V18.3799Z" fill="#F8F8F8"/>
<path d="M262.294 32.8559L265.236 34.1953C264.858 37.1208 264.259 39.353 263.439 40.8918C262.627 42.4116 261.608 43.1715 260.382 43.1715C258.442 43.1715 257.007 41.4522 256.075 38.0137C255.34 35.2591 254.972 31.7826 254.972 27.5842C254.972 22.5689 255.455 18.6459 256.422 15.8153C257.388 12.9657 258.61 11.5409 260.088 11.5409C261.748 11.5409 263.058 13.0322 264.017 16.0148C264.977 18.9784 265.435 23.5282 265.393 29.6644H257.998C258.019 32.0391 258.257 33.8913 258.712 35.2211C259.167 36.5319 259.734 37.1873 260.414 37.1873C260.876 37.1873 261.265 36.8454 261.58 36.1615C261.895 35.4776 262.133 34.3757 262.294 32.8559ZM262.462 24.7631C262.441 22.4454 262.221 20.6881 261.801 19.4913C261.38 18.2755 260.869 17.6675 260.267 17.6675C259.622 17.6675 259.09 18.304 258.67 19.5768C258.25 20.8496 258.043 22.5784 258.05 24.7631H262.462Z" fill="#F8F8F8"/>
<path d="M266.517 12.2248H268.156V9.94512C268.156 7.39947 268.254 5.49974 268.45 4.24591C268.653 2.99208 269.021 1.97573 269.553 1.19683C270.093 0.398945 270.772 0 271.591 0C272.432 0 273.255 0.341953 274.06 1.02586L273.661 6.61108C273.192 6.30712 272.74 6.15515 272.306 6.15515C271.879 6.15515 271.57 6.43061 271.381 6.98153C271.199 7.51346 271.108 8.54881 271.108 10.0876V12.2248H273.314V18.5224H271.108V42.4876H268.156V18.5224H266.517V12.2248Z" fill="#F8F8F8"/>
<path d="M281.435 32.8559L284.376 34.1953C283.998 37.1208 283.399 39.353 282.58 40.8918C281.767 42.4116 280.748 43.1715 279.523 43.1715C277.583 43.1715 276.147 41.4522 275.216 38.0137C274.48 35.2591 274.113 31.7826 274.113 27.5842C274.113 22.5689 274.596 18.6459 275.562 15.8153C276.529 12.9657 277.751 11.5409 279.229 11.5409C280.888 11.5409 282.198 13.0322 283.158 16.0148C284.117 18.9784 284.576 23.5282 284.534 29.6644H277.138C277.159 32.0391 277.397 33.8913 277.853 35.2211C278.308 36.5319 278.875 37.1873 279.554 37.1873C280.017 37.1873 280.405 36.8454 280.72 36.1615C281.036 35.4776 281.274 34.3757 281.435 32.8559ZM281.603 24.7631C281.582 22.4454 281.361 20.6881 280.941 19.4913C280.521 18.2755 280.01 17.6675 279.407 17.6675C278.763 17.6675 278.231 18.304 277.81 19.5768C277.39 20.8496 277.184 22.5784 277.191 24.7631H281.603Z" fill="#F8F8F8"/>
<path d="M289.776 42.4876H286.824V12.2248H289.566V16.5277C290.035 14.495 290.455 13.1557 290.826 12.5098C291.205 11.8639 291.632 11.5409 292.108 11.5409C292.78 11.5409 293.428 12.0443 294.052 13.0512L293.138 20.0327C292.64 19.1588 292.178 18.7219 291.751 18.7219C291.338 18.7219 290.988 19.0354 290.7 19.6623C290.413 20.2702 290.186 21.3815 290.018 22.9963C289.856 24.6111 289.776 27.9926 289.776 33.1409V42.4876Z" fill="#F8F8F8"/>
<path d="M301.794 32.8559L304.735 34.1953C304.357 37.1208 303.758 39.353 302.939 40.8918C302.127 42.4116 301.108 43.1715 299.882 43.1715C297.942 43.1715 296.506 41.4522 295.575 38.0137C294.839 35.2591 294.472 31.7826 294.472 27.5842C294.472 22.5689 294.955 18.6459 295.921 15.8153C296.888 12.9657 298.11 11.5409 299.588 11.5409C301.248 11.5409 302.557 13.0322 303.517 16.0148C304.476 18.9784 304.935 23.5282 304.893 29.6644H297.497C297.518 32.0391 297.756 33.8913 298.212 35.2211C298.667 36.5319 299.234 37.1873 299.913 37.1873C300.376 37.1873 300.764 36.8454 301.08 36.1615C301.395 35.4776 301.633 34.3757 301.794 32.8559ZM301.962 24.7631C301.941 22.4454 301.72 20.6881 301.3 19.4913C300.88 18.2755 300.369 17.6675 299.766 17.6675C299.122 17.6675 298.59 18.304 298.17 19.5768C297.749 20.8496 297.543 22.5784 297.55 24.7631H301.962Z" fill="#F8F8F8"/>
<path d="M317.457 42.4876H314.505V27.0427C314.505 23.7752 314.442 21.6665 314.316 20.7166C314.19 19.7478 313.983 18.9974 313.696 18.4654C313.416 17.9335 313.076 17.6675 312.677 17.6675C312.166 17.6675 311.707 18.0475 311.301 18.8074C310.895 19.5673 310.615 20.5741 310.461 21.828C310.314 23.0818 310.24 25.3995 310.24 28.781V42.4876H307.288V12.2248H310.03V16.6702C311.003 13.2507 312.229 11.5409 313.707 11.5409C314.358 11.5409 314.953 11.8639 315.493 12.5098C316.032 13.1367 316.438 13.9441 316.711 14.9319C316.991 15.9198 317.184 17.0406 317.289 18.2945C317.401 19.5483 317.457 21.3435 317.457 23.6802V42.4876Z" fill="#F8F8F8"/>
<path d="M330.189 21.1726L327.28 22.5974C327.181 21.0206 326.957 19.8332 326.607 19.0354C326.264 18.2375 325.816 17.8385 325.263 17.8385C324.527 17.8385 323.939 18.5319 323.498 19.9187C323.063 21.2865 322.846 23.5852 322.846 26.8148C322.846 30.4053 323.067 32.9414 323.508 34.4232C323.956 35.905 324.555 36.6459 325.305 36.6459C325.865 36.6459 326.324 36.2185 326.681 35.3636C327.038 34.4897 327.29 32.9984 327.437 30.8897L330.337 32.229C330.035 35.8385 329.458 38.5646 328.603 40.4074C327.749 42.2501 326.604 43.1715 325.168 43.1715C323.536 43.1715 322.234 41.7752 321.26 38.9826C320.294 36.19 319.81 32.324 319.81 27.3847C319.81 22.3884 320.297 18.5034 321.271 15.7298C322.244 12.9372 323.561 11.5409 325.221 11.5409C326.579 11.5409 327.658 12.3388 328.456 13.9346C329.262 15.5113 329.839 17.924 330.189 21.1726Z" fill="#F8F8F8"/>
<path d="M338.898 32.8559L341.84 34.1953C341.462 37.1208 340.863 39.353 340.043 40.8918C339.231 42.4116 338.212 43.1715 336.986 43.1715C335.046 43.1715 333.611 41.4522 332.679 38.0137C331.944 35.2591 331.576 31.7826 331.576 27.5842C331.576 22.5689 332.059 18.6459 333.026 15.8153C333.992 12.9657 335.215 11.5409 336.692 11.5409C338.352 11.5409 339.662 13.0322 340.621 16.0148C341.581 18.9784 342.039 23.5282 341.997 29.6644H334.602C334.623 32.0391 334.861 33.8913 335.316 35.2211C335.771 36.5319 336.339 37.1873 337.018 37.1873C337.48 37.1873 337.869 36.8454 338.184 36.1615C338.499 35.4776 338.737 34.3757 338.898 32.8559ZM339.066 24.7631C339.045 22.4454 338.825 20.6881 338.405 19.4913C337.984 18.2755 337.473 17.6675 336.871 17.6675C336.227 17.6675 335.694 18.304 335.274 19.5768C334.854 20.8496 334.647 22.5784 334.654 24.7631H339.066Z" fill="#F8F8F8"/>
</svg>
