<svg width="23" height="23" viewBox="0 0 23 23" fill="none" xmlns="http://www.w3.org/2000/svg">
<path d="M10.7118 2C8.13497 2 5.95065 2.97264 4.41994 5.15937C2.24559 8.26558 2 11.3834 2 15.0274C2 17.6408 4.84105 20.7035 7.44487 21.1041C10.623 21.593 13.656 20.7654 16.2642 18.9396C20.5897 15.9117 23.3125 9.50637 19.1816 5.14592C16.9603 2.8012 14.5661 2.24199 11.4378 2.24199" stroke="#F8F8F8" stroke-width="3" stroke-linecap="round"/>
<path d="M6.35596 14.8254C6.35596 16.0792 8.40181 16.5194 9.38088 16.5194C11.0915 16.5194 13.2512 15.677 13.8578 13.8574" stroke="#F8F8F8" stroke-width="3" stroke-linecap="round"/>
<path d="M8.34473 10.2426C8.34473 9.64178 8.47018 9.07804 8.47018 8.48633" stroke="#F8F8F8" stroke-width="3" stroke-linecap="round"/>
<path d="M12.1084 8.10986V10.1171" stroke="#F8F8F8" stroke-width="3" stroke-linecap="round"/>
</svg>
