<svg width="28" height="24" viewBox="0 0 28 24" fill="none" xmlns="http://www.w3.org/2000/svg">
<path d="M2.44255 7.1617C2.44255 9.81754 2.44255 12.4734 2.44255 15.1292C2.44255 15.8562 2.38077 19.5836 2.87932 20.024C3.73477 20.7798 2.47552 21.7517 3.60728 20.3456C4.42578 19.3287 5.25805 18.8235 6.3897 18.2555C8.74899 17.0712 10.8645 17.879 12.7795 19.5238C13.5741 20.2063 14.0878 20.7638 14.7369 21.5604C15.5871 22.6035 15.0703 21.5577 14.9472 20.8101C14.3179 16.9874 14.381 12.9923 14.381 9.09105C14.381 6.9267 12.9517 4.48088 11.178 3.5531C9.52767 2.6898 6.5826 3.303 4.77201 3.303C3.11522 3.303 2.15137 4.71885 2.15137 6.51859" stroke="#F8F8F8" stroke-width="3" stroke-linecap="round"/>
<path d="M14.9629 8.12669C15.2191 5.58 19.6959 2.15545 21.9513 2.01708C22.5778 1.97865 23.2164 2.01708 23.844 2.01708C24.6624 2.01708 24.2807 4.26399 24.2807 4.91111C24.2807 7.72502 25.3131 10.4944 25.4455 13.2716C25.5123 14.6735 25.7662 15.9106 26.044 17.2911C26.3407 18.7653 26.0118 18.0503 25.1543 17.1303C24.489 16.4166 23.5122 15.5225 22.5336 15.5225C19.1757 15.5225 16.4188 17.6794 16.4188 21.6322" stroke="#F8F8F8" stroke-width="3" stroke-linecap="round"/>
</svg>
