<svg width="24" height="24" viewBox="0 0 24 24" fill="none" xmlns="http://www.w3.org/2000/svg">
<path d="M13.0551 4.08947C13.0551 7.67292 12.956 11.4392 13.8021 14.9554C14.0863 16.1364 13.813 17.4185 14.0966 18.5972C14.2141 19.0855 14.5188 21.6421 13.9027 21.6421C12.8743 21.6421 11.8663 21.4033 10.8498 21.4033C9.7323 21.4033 8.61244 21.4231 7.49523 21.4033C6.11929 21.3788 4.92243 21.3328 3.54445 21.6156C3.17851 21.6907 2.76224 21.6421 2.38795 21.6421C1.95289 21.6421 2.06471 21.3902 2.06471 21.0451C2.06471 16.2531 1.78522 11.4503 2.38795 6.66333C2.56404 5.26485 2.5819 3.76698 2.5819 2.35809C2.5819 1.80197 6.69083 2.05958 7.36593 2.05958C8.14821 2.05958 13.0551 1.85111 13.0551 2.77601" stroke="#F8F8F8" stroke-width="3" stroke-linecap="round"/>
<path d="M15.1238 22.0003C17.3123 22.0003 19.5007 22.0003 21.6892 22.0003C21.9477 22.0003 21.9766 21.9736 21.9766 21.735C21.9766 19.6255 21.9766 17.516 21.9766 15.4065C21.9766 11.7226 21.9766 8.03869 21.9766 4.35481C21.9766 4.02705 22.1215 3.6261 21.6892 3.61184C20.2253 3.56356 18.5722 3.0224 17.1638 2.6566C16.143 2.39146 15.1308 2.41702 14.0894 2.27185C13.4366 2.18085 12.8102 2.05957 12.1499 2.05957" stroke="#F8F8F8" stroke-width="3" stroke-linecap="round"/>
<path d="M5.29736 12.8064C5.76963 12.8064 7.98133 12.602 6.84176 13.5229C5.84906 14.325 5.66717 13.1133 6.07315 12.9258" stroke="#F8F8F8" stroke-width="3" stroke-linecap="round"/>
</svg>
