<svg width="28" height="24" viewBox="0 0 28 24" fill="none" xmlns="http://www.w3.org/2000/svg">
<path d="M4.99209 20.66C4.99209 20.0556 5.38382 19.2637 5.76238 18.8009C6.46132 17.9464 7.04644 16.8962 7.85316 16.1468C8.21529 15.8104 9.1492 14.5094 9.1492 13.9575C9.1492 13.6999 7.84539 13.1507 7.62085 13.0524C6.49802 12.561 4.6432 11.5348 3.7205 10.7041C3.26833 10.297 1.79867 10.0826 2.22883 9.65229C2.60186 9.27914 4.43209 9.16879 4.99209 9.04075C6.82016 8.62277 8.61168 8.55152 10.4941 8.55152C11.7768 8.55152 11.6668 8.12218 12.1448 6.90037C12.73 5.40438 13.6764 4.04758 14.2355 2.50952C14.6312 1.42124 15.1224 2.32248 15.8739 2.9376C16.3783 3.35037 16.8346 4.10904 17.0966 4.69883C17.5046 5.61713 18.566 7.89106 19.6398 7.89106C21.4867 7.89106 23.3674 8.11121 25.2397 8.11121C26.437 8.11121 26.3498 8.11909 25.582 9.04075C24.6525 10.1565 23.1936 10.8184 22.1585 11.8538C21.5237 12.4888 20.8955 13.1958 20.19 13.7251C19.2842 14.4047 20.8342 15.4459 21.2904 16.1591C22.1292 17.4701 22.6536 19.1109 23.6013 20.3297C23.8512 20.6512 24.0932 21.0209 24.3593 21.3204C24.5441 21.5284 25.1433 21.8653 24.8851 21.9687C24.2679 22.2156 22.6841 20.9304 22.1585 20.66C21.1638 20.1482 20.1487 19.2791 19.3463 18.5074C18.6411 17.829 17.6216 17.1235 16.8276 16.477C16.3313 16.0729 15.4826 15.5902 15.1281 15.0583C14.9921 14.8543 14.8356 15.4679 14.6268 15.5964C12.7024 16.7811 10.7067 17.8511 8.73349 18.9477C8.17008 19.2608 7.28226 19.8359 6.80166 20.2686C6.35816 20.6679 5.47085 20.8029 5.21217 21.3204" stroke="#F8F8F8" stroke-width="3" stroke-linecap="round"/>
</svg>
